<svg xmlns="http://www.w3.org/2000/svg" width="48" height="48"><path d="M44 24c0 11.047-8.953 20-20 20S4 35.047 4 24 12.953 4 24 4s20 8.953 20 20zm0 0" fill="#1565c0"/><path d="M32.3 14.5l-2 1.5c-.3.3-.402.7-.3 1.102l.898 1.097c.102.403-.097.903-.5 1.102-.5.3-1.699.898-1.699 1.199 0 .7.5 2.398.903 2.398 3.097 0 1.199-1.398 3.398-2.796 1.3-.801 3.398-1.204 3.898-1.204h2v14h-7s1.204 1.903 2.301 4c.5 1 1.7 3 1.7 3 5.101-3.898 8-9.796 8-16 0-6.398-3.098-12.199-7.797-15.796l-2.903 5.097c-.199.602-.5 1-.898 1.301zm0 0M14.102 25C15 25 15 24.2 15 23s-.2-3 3-3c1.3 0 3 0 3-2v-5c0-.3-.102-1.602-2.102-1.602-1.699 0-3-.296-3-1.5 0-.898.704-3 2.102-4.898-7.398 2.3-12.8 8.7-13.8 16.5L4 23h8c1.5 0 1.2 2 2.102 2zm0 0M23 31c-1.2 0-2 0-3.398-1.7-.602-.6-1.5-1.3-2.204-1.3H15l-1 1 2 7v6.3c1 .4 2 .802 3 1.098.398-3.097 2.8-6.796 3-7.398.2-.398 1-2.3 1-2.3V31zm0 0" fill="#43a047"/><path d="M37 19s1 1 1 4c0 1-2 2-5 2-5 0-5 2.898-5 4 0 3.602 4 4 4 4s4 0 7 4l.102.102C42.102 33.602 44 29 44 24c0-3.398-.898-6.7-2.398-9.5L41.3 14H41c-3 0-2.7 4-4 5zm0 0M6 24c.602 1.2 2.102 2.3 3.3 3.2.802.6 3.7 1.8 3.7 3.8 0 3.398 2 7 2 9v1.8l2 .9V41c0-3 3.398-5 5-5 0 0 2-.2 2-3.5 0-.398-.398-1.5-1-1.5 0 0-.5 2-4.3 2-2 0-3.802-1.102-3.802-5H13c-.602 0-1.102-.8-1.102-1.3S11.801 26 11 26c-.602 0-1-.3-1-.8v-1c0-.598.5-1.302 2-1.302 0-1.796-2-3-2-4.5 0-1.398-1-3.5-3-4.5l-.3-.097s-2.098 3.597-2.5 7.5zm0 0" fill="#7cb342"/><path d="M24 45C12.398 45 3 35.602 3 24S12.398 3 24 3s21 9.398 21 21-9.398 21-21 21zm0-39C14.102 6 6 14.102 6 24s8.102 18 18 18 18-8.102 18-18S33.898 6 24 6zm0 0" fill="#bbdefb"/></svg>