<svg xmlns="http://www.w3.org/2000/svg" width="48" height="48"><path d="M12 41s3.7-31 13-31 13 31 13 31" fill="#00bcd4"/><path d="M8 40V6H6v36h36v-2zm0 0" fill="#cfd8dc"/><path d="M40 23c.602 0 1 .398 1 1s-.398 1-1 1-1-.398-1-1 .398-1 1-1m-3 0c-.602 0-1 .398-1 1s.398 1 1 1 1-.398 1-1-.398-1-1-1m-3 0c-.602 0-1 .398-1 1s.398 1 1 1 1-.398 1-1-.398-1-1-1m-12 0c-.602 0-1 .398-1 1s.398 1 1 1 1-.398 1-1-.398-1-1-1m-3 0c-.602 0-1 .398-1 1s.398 1 1 1 1-.398 1-1-.398-1-1-1m-3 0c-.602 0-1 .398-1 1s.398 1 1 1 1-.398 1-1-.398-1-1-1m-3 0c-.602 0-1 .398-1 1s.398 1 1 1 1-.398 1-1-.398-1-1-1m-3 0c-.602 0-1 .398-1 1s.398 1 1 1 1-.398 1-1-.398-1-1-1m21 0c-.602 0-1 .398-1 1s.398 1 1 1 1-.398 1-1-.398-1-1-1m-3 0c-.602 0-1 .398-1 1s.398 1 1 1 1-.398 1-1-.398-1-1-1m-3 0c-.602 0-1 .398-1 1s.398 1 1 1 1-.398 1-1-.398-1-1-1" fill="#607d8b"/></svg>